<?xml version="1.0" encoding="UTF-8" standalone="no"?>
<svg
   xmlns:dc="http://purl.org/dc/elements/1.1/"
   xmlns:cc="http://creativecommons.org/ns#"
   xmlns:rdf="http://www.w3.org/1999/02/22-rdf-syntax-ns#"
   xmlns:svg="http://www.w3.org/2000/svg"
   xmlns="http://www.w3.org/2000/svg"
   xmlns:sodipodi="http://sodipodi.sourceforge.net/DTD/sodipodi-0.dtd"
   xmlns:inkscape="http://www.inkscape.org/namespaces/inkscape"
   aria-hidden="true"
   focusable="false"
   data-prefix="fas"
   data-icon="cloud"
   class="svg-inline--fa fa-cloud fa-w-20"
   role="img"
   viewBox="0 0 640 448"
   version="1.1"
   id="svg4"
   sodipodi:docname="cloudy.svg"
   width="640"
   height="448"
   inkscape:version="1.0.1 (3bc2e813f5, 2020-09-07)">
  <metadata
     id="metadata10">
    <rdf:RDF>
      <cc:Work
         rdf:about="">
        <dc:format>image/svg+xml</dc:format>
        <dc:type
           rdf:resource="http://purl.org/dc/dcmitype/StillImage" />
      </cc:Work>
    </rdf:RDF>
  </metadata>
  <defs
     id="defs8" />
  <sodipodi:namedview
     pagecolor="#ffffff"
     bordercolor="#666666"
     borderopacity="1"
     objecttolerance="10"
     gridtolerance="10"
     guidetolerance="10"
     inkscape:pageopacity="0"
     inkscape:pageshadow="2"
     inkscape:window-width="2880"
     inkscape:window-height="1526"
     id="namedview6"
     showgrid="false"
     inkscape:zoom="1.96875"
     inkscape:cx="320"
     inkscape:cy="224"
     inkscape:window-x="-11"
     inkscape:window-y="843"
     inkscape:window-maximized="1"
     inkscape:current-layer="svg4" />
  <path
     fill="currentColor"
     d="M 537.6,194.6 C 541.7,183.9 544,172.2 544,160 544,107 501,64 448,64 428.3,64 409.9,70 394.7,80.2 367,32.2 315.3,0 256,0 167.6,0 96,71.6 96,160 c 0,2.7 0.1,5.4 0.2,8.1 C 40.2,187.8 0,241.2 0,304 0,383.5 64.5,448 144,448 h 368 c 70.7,0 128,-57.3 128,-128 0,-61.9 -44,-113.6 -102.4,-125.4 z"
     id="path2"
     style="fill:#ffffff" />
</svg>
