<?xml version="1.0" encoding="UTF-8" standalone="no"?>
<svg
   xmlns:dc="http://purl.org/dc/elements/1.1/"
   xmlns:cc="http://creativecommons.org/ns#"
   xmlns:rdf="http://www.w3.org/1999/02/22-rdf-syntax-ns#"
   xmlns:svg="http://www.w3.org/2000/svg"
   xmlns="http://www.w3.org/2000/svg"
   xmlns:sodipodi="http://sodipodi.sourceforge.net/DTD/sodipodi-0.dtd"
   xmlns:inkscape="http://www.inkscape.org/namespaces/inkscape"
   width="15.54309mm"
   height="17.152939mm"
   viewBox="0 0 15.54309 17.152939"
   version="1.1"
   id="svg8"
   inkscape:version="1.0.1 (3bc2e813f5, 2020-09-07)"
   sodipodi:docname="heavy-snow.svg">
  <defs
     id="defs2" />
  <sodipodi:namedview
     id="base"
     pagecolor="#ffffff"
     bordercolor="#666666"
     borderopacity="1.0"
     inkscape:pageopacity="0.0"
     inkscape:pageshadow="2"
     inkscape:zoom="22.4"
     inkscape:cx="25.81029"
     inkscape:cy="38.21548"
     inkscape:document-units="mm"
     inkscape:current-layer="layer1"
     inkscape:document-rotation="0"
     showgrid="false"
     inkscape:window-width="2880"
     inkscape:window-height="1526"
     inkscape:window-x="-11"
     inkscape:window-y="843"
     inkscape:window-maximized="1" />
  <metadata
     id="metadata5">
    <rdf:RDF>
      <cc:Work
         rdf:about="">
        <dc:format>image/svg+xml</dc:format>
        <dc:type
           rdf:resource="http://purl.org/dc/dcmitype/StillImage" />
        <dc:title />
      </cc:Work>
    </rdf:RDF>
  </metadata>
  <g
     inkscape:label="Layer 1"
     inkscape:groupmode="layer"
     id="layer1">
    <path
       id="path73"
       style="stroke-width:0.132291;fill:#ffffff"
       d="m 7.5826479,15.328967 0.15066,0.260845 c 0.0367,0.06345 0.01505,0.144069 -0.0484,0.180714 l -1.731007,0.999403 c -0.06345,0.03668 -0.14407,0.01505 -0.180714,-0.04842 l -0.150657,-0.260847 c -0.03668,-0.06345 -0.01505,-0.14407 0.04842,-0.180714 l 1.731004,-0.999402 c 0.06345,-0.03667 0.144065,-0.01505 0.18071,0.04842 z m -1.960139,0.260871 0.150615,-0.260871 c 0.03665,-0.06347 0.117243,-0.08507 0.180714,-0.04842 l 1.731005,0.999397 c 0.06348,0.03665 0.08507,0.117244 0.04845,0.180714 l -0.150615,0.260872 c -0.03665,0.06347 -0.117245,0.08507 -0.180713,0.04842 l -1.731009,-0.999397 c -0.06347,-0.03665 -0.08507,-0.117244 -0.04842,-0.180714 z m 0.941405,-0.681861 h 0.264582 c 0.07329,0 0.132292,0.059 0.132292,0.132291 l 1e-6,1.984376 c -1e-6,0.07329 -0.059,0.132292 -0.132292,0.132291 l -0.264584,1e-6 c -0.07329,0 -0.132291,-0.059 -0.132292,-0.132292 l 10e-7,-1.984375 c 0,-0.07329 0.059,-0.132291 0.132292,-0.132292 z m -4.5859442,0.42099 0.15066,0.260845 c 0.0367,0.06345 0.01505,0.144069 -0.0484,0.180714 l -1.73100694,0.999403 c -0.06345,0.03667 -0.14407,0.01505 -0.180714,-0.04842 l -0.150658,-0.260847 c -0.03667,-0.06345 -0.01505,-0.14407 0.04842,-0.180714 L 1.7972747,15.280546 c 0.06345,-0.03668 0.144066,-0.01505 0.180711,0.04842 z m -1.96013894,0.260871 0.150615,-0.260871 c 0.03665,-0.06347 0.117242,-0.08507 0.180713,-0.04842 l 1.73100594,0.999397 c 0.06348,0.03665 0.08507,0.117244 0.04845,0.180714 l -0.150615,0.260872 c -0.03665,0.06347 -0.117245,0.08507 -0.180714,0.04842 L 0.06627776,15.770553 c -0.06347,-0.03665 -0.08507,-0.117244 -0.04842,-0.180714 z m 0.941405,-0.681861 H 1.2238177 c 0.07329,0 0.132292,0.059 0.132292,0.132291 l 10e-7,1.984376 c -10e-7,0.07329 -0.059,0.132292 -0.132292,0.132291 l -0.26458394,1e-6 c -0.07329,0 -0.132291,-0.059 -0.132292,-0.132292 l 1e-6,-1.984375 c 0,-0.07329 0.059,-0.132291 0.132292,-0.132292 z m 12.10997324,0.42099 0.15066,0.260845 c 0.0367,0.06345 0.01505,0.144069 -0.0484,0.180714 l -1.731006,0.999402 c -0.06345,0.03667 -0.14407,0.01505 -0.180715,-0.04842 l -0.150657,-0.260846 c -0.03668,-0.06345 -0.01505,-0.14407 0.04842,-0.180714 l 1.731004,-0.999402 c 0.06345,-0.03668 0.144066,-0.01505 0.180711,0.04842 z m -1.960139,0.260871 0.150615,-0.260871 c 0.03665,-0.06347 0.117243,-0.08507 0.180714,-0.04842 l 1.731005,0.999397 c 0.06348,0.03665 0.08507,0.117243 0.04845,0.180714 l -0.150615,0.260872 c -0.03665,0.06347 -0.117245,0.08507 -0.180713,0.04842 l -1.731009,-0.999397 c -0.06347,-0.03665 -0.08507,-0.117244 -0.04842,-0.180715 z m 0.941405,-0.681861 h 0.264582 c 0.07329,0 0.132292,0.059 0.132292,0.132291 l 10e-7,1.984376 c -10e-7,0.07329 -0.059,0.132292 -0.132292,0.132291 l -0.264583,1e-6 c -0.07329,-1e-6 -0.132292,-0.059 -0.132293,-0.132292 l 1e-6,-1.984376 c 0,-0.07329 0.059,-0.132291 0.132292,-0.132291 z m -2.9664147,-2.776434 0.15066,0.260845 c 0.0367,0.06345 0.01505,0.144069 -0.0484,0.180714 l -1.731007,0.999403 c -0.06345,0.03668 -0.14407,0.01505 -0.180714,-0.04842 l -0.150657,-0.260847 c -0.03668,-0.06345 -0.01505,-0.14407 0.04842,-0.180714 l 1.731004,-0.999402 c 0.06345,-0.03667 0.144065,-0.01505 0.18071,0.04842 z m -1.960139,0.260871 0.150615,-0.260871 c 0.03665,-0.06347 0.117243,-0.08507 0.180714,-0.04842 l 1.731005,0.999397 c 0.06348,0.03665 0.08507,0.117244 0.04845,0.180714 l -0.150615,0.260872 c -0.03665,0.06347 -0.117245,0.08507 -0.180713,0.04842 l -1.731009,-0.999397 c -0.06347,-0.03665 -0.08507,-0.117244 -0.04842,-0.180714 z m 0.941405,-0.681861 h 0.264582 c 0.07329,0 0.132292,0.059 0.132292,0.132291 l 1e-6,1.984376 c -1e-6,0.07329 -0.059,0.132292 -0.132292,0.132291 l -0.264584,1e-6 c -0.07329,0 -0.132291,-0.059 -0.132292,-0.132292 l 1e-6,-1.984375 c 0,-0.07329 0.059,-0.132291 0.132292,-0.132292 z m -4.5859442,0.42099 0.15066,0.260845 c 0.0367,0.06345 0.01505,0.144069 -0.0484,0.180714 l -1.731007,0.999403 c -0.06345,0.03667 -0.14407,0.01505 -0.180714,-0.04842 l -0.150658,-0.260847 c -0.03667,-0.06345 -0.01505,-0.14407 0.04842,-0.180714 l 1.731004,-0.999402 c 0.06345,-0.03668 0.144066,-0.01505 0.180711,0.04842 z m -1.960139,0.260871 0.150615,-0.260871 c 0.03665,-0.06347 0.117242,-0.08507 0.180713,-0.04842 l 1.731006,0.999397 c 0.06348,0.03665 0.08507,0.117244 0.04845,0.180714 l -0.150615,0.260872 c -0.03665,0.06347 -0.117245,0.08507 -0.180714,0.04842 l -1.731008,-0.999397 c -0.06347,-0.03665 -0.08507,-0.117244 -0.04842,-0.180714 z m 0.941405,-0.681861 h 0.264582 c 0.07329,0 0.132292,0.059 0.132292,0.132291 l 10e-7,1.984376 c -10e-7,0.07329 -0.059,0.132292 -0.132292,0.132291 l -0.264584,1e-6 c -0.07329,0 -0.132291,-0.059 -0.132292,-0.132292 l 1e-6,-1.984375 c 0,-0.07329 0.059,-0.132291 0.132292,-0.132292 z M 13.056248,4.7259945 a 2.3344187,2.3344187 0 0 0 -2.1762,-3.17182 2.3196021,2.3196021 0 0 0 -1.2945998,0.39344 3.8862,3.8862 0 0 0 -7.2543503,1.93807 c 0,0.0656 0.002,0.13229 0.005,0.19685 a 3.4983208,3.4983208 0 0 0 1.161,6.7979395 h 8.9381501 a 3.1085896,3.1085896 0 0 0 0.62177,-6.1542095 z m 1.514373,7.4055485 0.15066,0.260845 c 0.0367,0.06345 0.01505,0.144069 -0.0484,0.180714 l -1.731006,0.999402 c -0.06345,0.03667 -0.14407,0.01505 -0.180715,-0.04842 l -0.150657,-0.260846 c -0.03668,-0.06345 -0.01505,-0.14407 0.04842,-0.180714 l 1.731004,-0.999402 c 0.06345,-0.03668 0.144066,-0.01505 0.180711,0.04842 z m -1.960139,0.260871 0.150615,-0.260871 c 0.03665,-0.06347 0.117243,-0.08507 0.180714,-0.04842 l 1.731005,0.999397 c 0.06348,0.03665 0.08507,0.117243 0.04845,0.180714 l -0.150615,0.260872 c -0.03665,0.06347 -0.117245,0.08507 -0.180713,0.04842 l -1.731009,-0.999397 c -0.06347,-0.03665 -0.08507,-0.117244 -0.04842,-0.180715 z m 0.941405,-0.681861 h 0.264582 c 0.07329,0 0.132292,0.059 0.132292,0.132291 l 1e-6,1.984376 c -1e-6,0.07329 -0.059,0.132292 -0.132292,0.132291 l -0.264583,1e-6 c -0.07329,-1e-6 -0.132292,-0.059 -0.132293,-0.132292 l 10e-7,-1.984376 c 0,-0.07329 0.059,-0.132291 0.132292,-0.132291 z" />
  </g>
</svg>
