<?xml version="1.0" encoding="UTF-8" standalone="no"?>
<svg
   xmlns:dc="http://purl.org/dc/elements/1.1/"
   xmlns:cc="http://creativecommons.org/ns#"
   xmlns:rdf="http://www.w3.org/1999/02/22-rdf-syntax-ns#"
   xmlns:svg="http://www.w3.org/2000/svg"
   xmlns="http://www.w3.org/2000/svg"
   xmlns:sodipodi="http://sodipodi.sourceforge.net/DTD/sodipodi-0.dtd"
   xmlns:inkscape="http://www.inkscape.org/namespaces/inkscape"
   width="15.54309mm"
   height="17.152939mm"
   viewBox="0 0 15.54309 17.152939"
   version="1.1"
   id="svg8"
   inkscape:version="1.0.1 (3bc2e813f5, 2020-09-07)"
   sodipodi:docname="light-snow.svg">
  <defs
     id="defs2" />
  <sodipodi:namedview
     id="base"
     pagecolor="#ffffff"
     bordercolor="#666666"
     borderopacity="1.0"
     inkscape:pageopacity="0.0"
     inkscape:pageshadow="2"
     inkscape:zoom="15.839192"
     inkscape:cx="39.309834"
     inkscape:cy="32.173212"
     inkscape:document-units="mm"
     inkscape:current-layer="layer1"
     inkscape:document-rotation="0"
     showgrid="false"
     inkscape:window-width="2880"
     inkscape:window-height="1526"
     inkscape:window-x="-11"
     inkscape:window-y="843"
     inkscape:window-maximized="1" />
  <metadata
     id="metadata5">
    <rdf:RDF>
      <cc:Work
         rdf:about="">
        <dc:format>image/svg+xml</dc:format>
        <dc:type
           rdf:resource="http://purl.org/dc/dcmitype/StillImage" />
        <dc:title />
      </cc:Work>
    </rdf:RDF>
  </metadata>
  <g
     inkscape:label="Layer 1"
     inkscape:groupmode="layer"
     id="layer1">
    <path
       id="path43"
       style="stroke-width:0.264583;fill:#ffffff"
       d="m 9.3957759,13.497 0.3013202,0.521691 c 0.0734,0.126903 0.0301,0.288138 -0.0968,0.361428 l -3.4620132,1.998805 c -0.126905,0.07335 -0.28814,0.0301 -0.361429,-0.09684 l -0.301315,-0.521693 c -0.07335,-0.126905 -0.0301,-0.28814 0.09685,-0.361428 l 3.462008,-1.998804 c 0.126902,-0.07335 0.288132,-0.0301 0.361422,0.09684 z m -3.920278,0.521743 0.30123,-0.521742 c 0.07329,-0.126939 0.234485,-0.170133 0.361427,-0.09684 l 3.4620112,1.998794 c 0.12695,0.07329 0.17014,0.234487 0.0969,0.361428 l -0.3012302,0.521744 c -0.0733,0.126939 -0.23449,0.170131 -0.361427,0.09684 l -3.462017,-1.998794 c -0.126941,-0.07329 -0.170133,-0.234489 -0.09684,-0.361429 z m 1.88281,-1.363722 h 0.529164 c 0.146582,0 0.264584,0.118004 0.264584,0.264582 l 2e-6,3.968752 c -2e-6,0.14658 -0.118005,0.264583 -0.264584,0.264581 l -0.529167,2e-6 c -0.146579,0 -0.264583,-0.118003 -0.264585,-0.264583 l 2e-6,-3.968751 c 0,-0.146577 0.118002,-0.264582 0.264584,-0.264583 z m 7.4780951,-0.216355 0.30132,0.521691 c 0.0734,0.126903 0.0301,0.288138 -0.0968,0.361428 L 11.57891,15.32059 c -0.126905,0.07335 -0.28814,0.0301 -0.361429,-0.09684 l -0.301315,-0.521693 c -0.07335,-0.126905 -0.0301,-0.28814 0.09685,-0.361428 l 3.462008,-1.998804 c 0.126902,-0.07335 0.288132,-0.0301 0.361422,0.09684 z m -3.920278,0.521743 0.30123,-0.521742 c 0.07329,-0.126939 0.234485,-0.170133 0.361427,-0.09684 l 3.462011,1.998794 c 0.12695,0.07329 0.17014,0.234487 0.0969,0.361428 l -0.30123,0.521744 c -0.0733,0.126939 -0.23449,0.170131 -0.361427,0.09684 l -3.462017,-1.998794 c -0.126941,-0.07329 -0.170133,-0.234489 -0.09684,-0.361429 z m 1.88281,-1.363722 h 0.529164 c 0.146582,0 0.264584,0.118004 0.264584,0.264582 l 2e-6,3.968752 c -2e-6,0.14658 -0.118005,0.264583 -0.264584,0.264581 l -0.529167,2e-6 c -0.146579,0 -0.264583,-0.118003 -0.264585,-0.264583 l 2e-6,-3.968751 c 0,-0.146577 0.118002,-0.264582 0.264584,-0.264583 z m 0.257313,-6.8706925 a 2.3344187,2.3344187 0 0 0 -2.1762,-3.17182 2.3196021,2.3196021 0 0 0 -1.2945998,0.39344 3.8862,3.8862 0 0 0 -7.2543503,1.93807 c 0,0.0656 0.002,0.13229 0.005,0.19685 a 3.4983208,3.4983208 0 0 0 1.161,6.7979395 h 8.9381501 a 3.1085896,3.1085896 0 0 0 0.62177,-6.1542095 z m -9.1003054,7.7126985 0.30132,0.521691 c 0.0734,0.126903 0.0301,0.288138 -0.0968,0.361427 l -3.46201299,1.998805 c -0.126905,0.07335 -0.28814,0.0301 -0.361429,-0.09684 l -0.301315,-0.521692 c -0.07335,-0.126905 -0.0301,-0.28814 0.09685,-0.361428 L 3.5945636,12.341852 c 0.126902,-0.07335 0.288132,-0.0301 0.361422,0.09684 z m -3.92027799,0.521743 0.30123,-0.521742 c 0.07329,-0.12694 0.234485,-0.170134 0.361427,-0.09684 l 3.46201099,1.998793 c 0.12695,0.07329 0.17014,0.234487 0.0969,0.361429 l -0.30123,0.521743 c -0.0733,0.12694 -0.23449,0.170131 -0.361427,0.09684 L 0.13255861,13.321865 c -0.126941,-0.07329 -0.170133,-0.234488 -0.09684,-0.361429 z M 1.9184746,11.596714 h 0.529164 c 0.146582,0 0.264584,0.118004 0.264584,0.264582 l 2e-6,3.968751 c -2e-6,0.14658 -0.118005,0.264584 -0.264584,0.264582 l -0.529167,2e-6 c -0.146579,-1e-6 -0.264583,-0.118004 -0.264585,-0.264584 l 2e-6,-3.968751 c 0,-0.146577 0.118002,-0.264582 0.264584,-0.264582 z" />
  </g>
</svg>
