<?xml version="1.0" encoding="UTF-8" standalone="no"?>
<svg
   xmlns:dc="http://purl.org/dc/elements/1.1/"
   xmlns:cc="http://creativecommons.org/ns#"
   xmlns:rdf="http://www.w3.org/1999/02/22-rdf-syntax-ns#"
   xmlns:svg="http://www.w3.org/2000/svg"
   xmlns="http://www.w3.org/2000/svg"
   xmlns:sodipodi="http://sodipodi.sourceforge.net/DTD/sodipodi-0.dtd"
   xmlns:inkscape="http://www.inkscape.org/namespaces/inkscape"
   aria-hidden="true"
   focusable="false"
   data-prefix="fas"
   data-icon="cloud-rain"
   class="svg-inline--fa fa-cloud-rain fa-w-16"
   role="img"
   viewBox="0 0 512 512"
   version="1.1"
   id="svg4"
   sodipodi:docname="sleet.svg"
   inkscape:version="1.0.1 (3bc2e813f5, 2020-09-07)">
  <metadata
     id="metadata10">
    <rdf:RDF>
      <cc:Work
         rdf:about="">
        <dc:format>image/svg+xml</dc:format>
        <dc:type
           rdf:resource="http://purl.org/dc/dcmitype/StillImage" />
        <dc:title />
      </cc:Work>
    </rdf:RDF>
  </metadata>
  <defs
     id="defs8" />
  <sodipodi:namedview
     pagecolor="#ffffff"
     bordercolor="#666666"
     borderopacity="1"
     objecttolerance="10"
     gridtolerance="10"
     guidetolerance="10"
     inkscape:pageopacity="0"
     inkscape:pageshadow="2"
     inkscape:window-width="2880"
     inkscape:window-height="1526"
     id="namedview6"
     showgrid="false"
     inkscape:zoom="1.3921165"
     inkscape:cx="737.86019"
     inkscape:cy="239.2449"
     inkscape:window-x="-11"
     inkscape:window-y="843"
     inkscape:window-maximized="1"
     inkscape:current-layer="svg4"
     inkscape:document-rotation="0" />
  <path
     id="Rectangle_3-3"
     style="stroke-width:8.25542;fill:#ffffff"
     d="m 315.31235,403.05028 9.8767,15.49442 c 2.40441,3.76912 0.98651,8.55786 -3.17446,10.73459 l -113.47977,59.36534 c -4.15976,2.1787 -9.44481,0.89395 -11.84714,-2.87628 l -9.8767,-15.49441 c -2.4045,-3.76913 -0.98651,-8.55794 3.17446,-10.7346 L 303.4653,400.17393 c 4.15967,-2.17862 9.44472,-0.89388 11.84705,2.87635 z m -128.50145,15.49599 9.87392,-15.49599 c 2.40233,-3.77015 7.68607,-5.053 11.84705,-2.87627 l 113.48003,59.36502 c 4.16098,2.17673 5.57679,6.96437 3.17437,10.7346 l -9.87375,15.49598 c -2.40233,3.77023 -7.68616,5.05301 -11.84705,2.87635 l -113.48012,-59.3651 c -4.16097,-2.17681 -5.5767,-6.96444 -3.17445,-10.73459 z m 61.71596,-40.50312 17.34526,-8e-5 c 4.80475,8e-5 8.67267,3.50478 8.67267,7.85825 l 9e-5,117.87365 c -9e-5,4.35354 -3.86801,7.85832 -8.67276,7.85824 l -17.34535,8e-5 c -4.80466,-8e-5 -8.67267,-3.50478 -8.67267,-7.85832 l 8e-5,-117.87365 c -8e-5,-4.35339 3.86793,-7.85817 8.67268,-7.85817 z M 416,128 c -0.6,0 -1.1,0.2 -1.6,0.2 C 415.5,123 416,117.6 416,112 416,67.8 380.2,32 336,32 311.4,32 289.7,43.3 275,60.8 256.4,24.8 219.3,0 176,0 114.1,0 64,50.1 64,112 c 0,7.3 0.8,14.3 2.1,21.2 C 27.8,145.8 0,181.5 0,224 c 0,53 43,96 96,96 h 320 c 53,0 96,-43 96,-96 0,-53 -43,-96 -96,-96 z M 40,366.2 C 27.2,410.6 0,422.6 0,453.9 0,481.6 21.5,504 48,504 c 26.5,0 48,-22.4 48,-50.1 0,-31.4 -27.2,-43.1 -40,-87.7 -2.2,-8.1 -13.5,-8.5 -16,0 z m 168,95.7 c -138.666667,-307.93333 -69.33333,-153.96667 0,0 z m 248,-95.7 c -12.8,44.4 -40,56.4 -40,87.7 0,27.7 21.5,50.1 48,50.1 26.5,0 48,-22.4 48,-50.1 0,-31.4 -27.2,-43.1 -40,-87.7 -2.2,-8.1 -13.5,-8.5 -16,0 z" />
</svg>
